<svg width="48" height="48" viewBox="0 0 48 48" xmlns="http://www.w3.org/2000/svg">
  <defs>
    <linearGradient id="g" x1="2" y1="2" x2="46" y2="46" gradientUnits="userSpaceOnUse">
      <stop offset="0%" stop-color="#fb923c"/>
      <stop offset="38%" stop-color="#f43f5e"/>
      <stop offset="72%" stop-color="#d946ef"/>
      <stop offset="100%" stop-color="#7c3aed"/>
    </linearGradient>
    <linearGradient id="s" x1="0" y1="0" x2="0" y2="48" gradientUnits="userSpaceOnUse">
      <stop offset="0%" stop-color="#ffffff" stop-opacity="0.32"/>
      <stop offset="50%" stop-color="#ffffff" stop-opacity="0.06"/>
      <stop offset="100%" stop-color="#ffffff" stop-opacity="0"/>
    </linearGradient>
  </defs>
  <rect width="48" height="48" rx="13" fill="url(#g)"/>
  <rect width="48" height="48" rx="13" fill="url(#s)"/>
  <rect x="0.75" y="0.75" width="46.5" height="46.5" rx="12.25" fill="none" stroke="#ffffff" stroke-opacity="0.22" stroke-width="0.75"/>
  <path d="M 33 17 C 31.6 14 28.1 12.2 23.8 12.2 C 18.3 12.2 14.2 15.2 14.2 19.6 C 14.2 24 17.6 25.5 22.8 26.4 C 26.7 27 28.5 27.7 28.5 29.5 C 28.5 31.3 26.6 32.2 23.7 32.2 C 20 32.2 16.9 30.6 15 28.2 L 12.6 31.2 C 15.2 34.2 19.1 35.8 23.8 35.8 C 29.9 35.8 33.7 33 33.7 28.4 C 33.7 23.7 30.2 22.3 24.9 21.5 C 21.1 20.9 19.3 20.2 19.3 18.8 C 19.3 17.1 21.1 16.3 23.7 16.3 C 26.5 16.3 28.7 17.4 30.3 19.3 L 33 17 Z" fill="#ffffff"/>
  <circle cx="40" cy="9" r="3.5" fill="#ffffff"/>
  <circle cx="40" cy="9" r="2" fill="#f43f5e"/>
</svg>
